<svg xmlns="http://www.w3.org/2000/svg" viewBox="0 0 64 64" fill="none">
  <rect width="64" height="64" fill="#1e293b" rx="8"/>
  <!-- Gear -->
  <path d="M32 20c-1.1 0-2 .9-2 2v1.1c-1.3.3-2.5.9-3.5 1.7l-.8-.8c-.8-.8-2-.8-2.8 0s-.8 2 0 2.8l.8.8c-.8 1-.4 2.2-.7 3.5H22c-1.1 0-2 .9-2 2s.9 2 2 2h1.1c.3 1.3.9 2.5 1.7 3.5l-.8.8c-.8.8-.8 2 0 2.8s2 .8 2.8 0l.8-.8c1 .8 2.2 1.4 3.5 1.7V44c0 1.1.9 2 2 2s2-.9 2-2v-1.1c1.3-.3 2.5-.9 3.5-1.7l.8.8c.8.8 2 .8 2.8 0s.8-2 0-2.8l-.8-.8c.8-1 1.4-2.2 1.7-3.5H42c1.1 0 2-.9 2-2s-.9-2-2-2h-1.1c-.3-1.3-.9-2.5-1.7-3.5l.8-.8c.8-.8.8-2 0-2.8s-2-.8-2.8 0l-.8.8c-1-.8-2.2-1.4-3.5-1.7V22c0-1.1-.9-2-2-2zm0 12c2.2 0 4 1.8 4 4s-1.8 4-4 4-4-1.8-4-4 1.8-4 4-4z" fill="#3b82f6" stroke="#60a5fa" stroke-width="0.5"/>
  <!-- Wrench -->
  <path d="M43 38l-3 3c-.4.4-.4 1 0 1.4l4.6 4.6c.4.4 1 .4 1.4 0l3-3c.4-.4.4-1 0-1.4L44.4 38c-.4-.4-1-.4-1.4 0zm-1.7-1.7c.4-.4.4-1 0-1.4L37 30.6c-.2-.2-.5-.3-.7-.3-.3 0-.5.1-.7.3l-2.8 2.8c-.4.4-.4 1 0 1.4l4.3 4.3c.4.4 1 .4 1.4 0l2.8-2.8z" fill="#60a5fa" stroke="#3b82f6" stroke-width="0.5"/>
</svg>
